<?xml version="1.0" encoding="UTF-8" standalone="no"?>
<!-- Created with Inkscape (http://www.inkscape.org/) -->

<svg
   xmlns:dc="http://purl.org/dc/elements/1.1/"
   xmlns:cc="http://creativecommons.org/ns#"
   xmlns:rdf="http://www.w3.org/1999/02/22-rdf-syntax-ns#"
   xmlns:svg="http://www.w3.org/2000/svg"
   xmlns="http://www.w3.org/2000/svg"
   xmlns:xlink="http://www.w3.org/1999/xlink"
   version="1.1"
   width="64"
   height="22"
   id="svg3273">
  <defs
     id="defs3275">
    <linearGradient
       id="linearGradient3831">
      <stop
         id="stop3833"
         style="stop-color:#7b7b7b;stop-opacity:0.22330096"
         offset="0" />
      <stop
         id="stop3839"
         style="stop-color:#6e6e6e;stop-opacity:1"
         offset="0.5" />
      <stop
         id="stop3835"
         style="stop-color:#7b7b7b;stop-opacity:0.33009708"
         offset="1" />
    </linearGradient>
    <linearGradient
       id="linearGradient3780">
      <stop
         id="stop3782"
         style="stop-color:#4095e7;stop-opacity:1"
         offset="0" />
      <stop
         id="stop3784"
         style="stop-color:#66c3ed;stop-opacity:1"
         offset="1" />
    </linearGradient>
    <linearGradient
       x1="50.402931"
       y1="6.465868"
       x2="57.31868"
       y2="6.3486519"
       id="linearGradient3828"
       xlink:href="#linearGradient3831"
       gradientUnits="userSpaceOnUse"
       gradientTransform="matrix(-0.2741721,0.76452559,0.83673496,0.33381581,55.043231,-34.412428)" />
    <linearGradient
       x1="50.402931"
       y1="6.465868"
       x2="57.31868"
       y2="6.3486519"
       id="linearGradient3832"
       xlink:href="#linearGradient3831"
       gradientUnits="userSpaceOnUse"
       gradientTransform="matrix(-0.27381902,0.7646717,-0.86561473,-0.34587162,76.3607,-25.835098)" />
    <linearGradient
       x1="50.402931"
       y1="6.465868"
       x2="57.31868"
       y2="6.3486519"
       id="linearGradient3835"
       xlink:href="#linearGradient3831"
       gradientUnits="userSpaceOnUse"
       gradientTransform="matrix(0.72062047,0.29822205,0.34043695,-0.91792086,8.1793854,5.717956)" />
    <linearGradient
       x1="50.402931"
       y1="6.465868"
       x2="57.31868"
       y2="6.3486519"
       id="linearGradient3838"
       xlink:href="#linearGradient3831"
       gradientUnits="userSpaceOnUse"
       gradientTransform="matrix(0.72062047,0.29822205,-0.33758984,0.91024418,16.148721,-15.769782)" />
    <linearGradient
       x1="30.913849"
       y1="0.46670645"
       x2="31.239759"
       y2="10.925687"
       id="linearGradient3842"
       xlink:href="#linearGradient3780"
       gradientUnits="userSpaceOnUse"
       gradientTransform="matrix(0.89326634,0,0,1.0164101,4.3370965,-0.29462094)" />
  </defs>
  <metadata
     id="metadata3278">
    <rdf:RDF>
      <cc:Work
         rdf:about="">
        <dc:format>image/svg+xml</dc:format>
        <dc:type
           rdf:resource="http://purl.org/dc/dcmitype/StillImage" />
        <dc:title></dc:title>
      </cc:Work>
    </rdf:RDF>
  </metadata>
  <g
     id="g3846">
    <rect
       width="56.540817"
       height="21.206852"
       ry="10.603426"
       x="4.9653282"
       y="0.38298577"
       id="rect3010"
       style="fill:url(#linearGradient3842);fill-opacity:1;stroke:#808080;stroke-width:0.99722552;stroke-linecap:square;stroke-miterlimit:4;stroke-opacity:1;stroke-dasharray:none" />
    <path
       d="m 61.532428,11.075937 a 10.652205,10.634017 0 0 1 -21.304409,0 10.652205,10.634017 0 1 1 21.304409,0 z"
       id="path3788"
       style="fill:#e5e5e5;fill-opacity:1;stroke:#474747;stroke-width:1.05695784;stroke-linecap:square;stroke-miterlimit:4;stroke-opacity:1;stroke-dasharray:none" />
    <path
       d="M 50.943331,0.92871587 51.064749,11.194711 57.661517,3.3416509 c 0,0 -1.481192,-1.2875947 -3.125661,-1.8450715 C 52.891387,0.93910262 50.943331,0.92871587 50.943331,0.92871587 z"
       id="path3829"
       style="opacity:0.62719296;fill:url(#linearGradient3838);fill-opacity:1;stroke:none" />
    <path
       d="m 44.255326,18.877138 6.921768,-7.985346 -0.256032,10.336295 c 0,0 -1.913838,0.06981 -3.540761,-0.5426 -1.702451,-0.640834 -3.124975,-1.808349 -3.124975,-1.808349 z"
       id="path3853"
       style="opacity:0.62719296;fill:url(#linearGradient3835);fill-opacity:1;stroke:none" />
    <path
       d="m 61.117982,11.248387 -10.026884,-0.184998 7.207622,6.822625 c 0,0 1.528309,-1.360183 2.036669,-3.10373 0.508359,-1.743547 0.782593,-3.533897 0.782593,-3.533897 z"
       id="path3857"
       style="opacity:0.62719296;fill:url(#linearGradient3832);fill-opacity:1;stroke:none" />
    <path
       d="m 43.307782,4.0703879 7.73967,6.9238751 -10.457026,-0.135365 c 0,0 0.03521,-1.4256613 0.907995,-3.5036886 0.735136,-1.7502885 1.809361,-3.2848215 1.809361,-3.2848215 z"
       id="path3859"
       style="opacity:0.62719296;fill:url(#linearGradient3828);fill-opacity:1;stroke:none" />
    <g
       transform="matrix(1.2413633,0,0,1.1778167,-5.4593688,-2.8080474)"
       id="text3885"
       style="font-size:11.59680939px;font-style:normal;font-variant:normal;font-weight:600;font-stretch:normal;line-height:125%;letter-spacing:0px;word-spacing:0px;opacity:0.57894736;fill:#1e1e1e;fill-opacity:1;stroke:none;font-family:URW Gothic L;-inkscape-font-specification:URW Gothic L Semi-Bold">
      <path
         d="m 19.083506,7.9128148 c -2.551296,0 -4.522756,1.9366697 -4.522756,4.4415782 0,2.470118 1.994654,4.429981 4.511159,4.429981 2.493311,0 4.418384,-1.93667 4.418384,-4.441578 0,-2.4469243 -1.959863,-4.4299812 -4.406787,-4.4299812 m -0.02319,1.5307789 c 1.588761,0 2.829622,1.2756503 2.829622,2.9223963 0,1.646745 -1.20607,2.887605 -2.829622,2.887605 -1.623552,0 -2.899202,-1.27565 -2.899202,-2.899202 0,-1.658342 1.252457,-2.9107993 2.899202,-2.9107993"
         id="path3895" />
      <path
         d="m 24.740937,16.633615 1.588762,0 0,-6.227486 3.583415,6.227486 1.774311,0 0,-8.5700416 -1.588763,0 0,6.2390836 -3.548623,-6.2390836 -1.809102,0 0,8.5700416"
         id="path3897" />
    </g>
    <g
       transform="matrix(1.2657875,0,0,1.1778167,-5.815004,-2.1680043)"
       id="text3881"
       style="font-size:11.59680939px;font-style:normal;font-variant:normal;font-weight:600;font-stretch:normal;line-height:125%;letter-spacing:0px;word-spacing:0px;fill:#ffffff;fill-opacity:1;stroke:none;font-family:URW Gothic L;-inkscape-font-specification:URW Gothic L Semi-Bold">
      <path
         d="m 19.083506,6.8023717 c -2.551296,0 -4.522756,1.9366697 -4.522756,4.4415783 0,2.470118 1.994654,4.429981 4.511159,4.429981 2.493311,0 4.418384,-1.93667 4.418384,-4.441578 0,-2.4469244 -1.959863,-4.4299813 -4.406787,-4.4299813 m -0.02319,1.5307789 c 1.588761,0 2.829622,1.2756506 2.829622,2.9223964 0,1.646745 -1.20607,2.887605 -2.829622,2.887605 -1.623552,0 -2.899202,-1.275651 -2.899202,-2.899202 0,-1.6583424 1.252457,-2.9107994 2.899202,-2.9107994"
         id="path3890" />
      <path
         d="m 24.740937,15.523172 1.588762,0 0,-6.2274863 3.583415,6.2274863 1.774311,0 0,-8.5700418 -1.588763,0 0,6.2390838 -3.548623,-6.2390838 -1.809102,0 0,8.5700418"
         id="path3892" />
    </g>
    <path
       d="m 60.723455,11.075568 a 9.7894508,9.4145975 0 0 1 -19.5789,0 9.7894508,9.4145975 0 1 1 19.5789,0 z"
       id="path3844"
       style="opacity:0.65789472;fill:none;stroke:#ffffff;stroke-width:0.95338714;stroke-linecap:square;stroke-miterlimit:4;stroke-opacity:1;stroke-dasharray:none" />
  </g>
</svg>
